<?xml version="1.0" encoding="UTF-8" standalone="no"?>
<!-- Generated by Pixelmator Pro 3.6.8 -->

<svg
   width="1024"
   height="1024"
   viewBox="0 0 1024 1024"
   version="1.1"
   id="svg1"
   sodipodi:docname="craftyearlylogo.svg"
   inkscape:version="1.4.3 (0d15f75, 2025-12-25)"
   xmlns:inkscape="http://www.inkscape.org/namespaces/inkscape"
   xmlns:sodipodi="http://sodipodi.sourceforge.net/DTD/sodipodi-0.dtd"
   xmlns="http://www.w3.org/2000/svg"
   xmlns:svg="http://www.w3.org/2000/svg">
  <defs
     id="defs1" />
  <sodipodi:namedview
     id="namedview1"
     pagecolor="#505050"
     bordercolor="#eeeeee"
     borderopacity="1"
     inkscape:showpageshadow="0"
     inkscape:pageopacity="0"
     inkscape:pagecheckerboard="0"
     inkscape:deskcolor="#505050"
     showgrid="false"
     inkscape:zoom="0.78808594"
     inkscape:cx="489.15985"
     inkscape:cy="557.6803"
     inkscape:window-width="1920"
     inkscape:window-height="1009"
     inkscape:window-x="-8"
     inkscape:window-y="-8"
     inkscape:window-maximized="1"
     inkscape:current-layer="svg1" />
  <g
     id="Group"
     style="isolation:isolate">
    <g
       id="EPITA">
      <path
         id="Path"
         style="fill:#ffffff;fill-opacity:0.79865772"
         d="M 496.25781 182.86914 L 24 486.46289 L 527.74219 841.78125 L 514.84375 571.82422 C 510.27365 576.96217 505.12376 581.34123 499.39648 584.96289 C 487.48536 592.42956 473.79676 596.16406 458.33008 596.16406 C 443.04117 596.16406 429.35257 592.42956 417.26367 584.96289 C 405.17477 577.31844 395.66381 566.2965 388.73047 551.89648 C 381.79713 537.49646 378.33008 520.07533 378.33008 499.63086 C 378.33008 479.18639 381.79713 461.76329 388.73047 447.36328 C 395.66381 432.96326 405.17477 422.03113 417.26367 414.56445 C 429.35257 406.92 443.04117 403.09766 458.33008 403.09766 C 473.79676 403.09766 487.48536 406.92 499.39648 414.56445 C 502.2819 416.34662 505.02158 418.3248 507.61328 420.50195 L 496.25781 182.86914 z M 284.94727 403.09766 C 298.81395 403.09766 310.90176 405.40707 321.21289 410.0293 C 331.70179 414.47374 339.79157 420.7851 345.48047 428.96289 C 351.34714 437.14068 354.2793 446.91908 354.2793 458.29688 C 354.2793 464.34132 353.48087 470.38523 351.88086 476.42969 C 350.45864 482.29636 347.43473 488.51987 342.8125 495.09766 C 338.36805 501.67544 331.7912 509.05268 323.08008 517.23047 L 280.04883 557.76367 L 360.41406 557.76367 L 360.41406 592.96289 L 219.3457 592.96289 L 219.3457 564.96289 L 291.3457 496.96289 C 297.0346 491.80733 301.21419 487.18655 303.88086 483.09766 C 306.54753 479.00876 308.324 475.27426 309.21289 471.89648 C 310.27956 468.5187 310.8125 465.4089 310.8125 462.56445 C 310.8125 455.09777 308.23564 449.40721 303.08008 445.49609 C 298.10229 441.4072 290.72506 439.36328 280.94727 439.36328 C 273.12504 439.36328 265.83564 440.87426 259.08008 443.89648 C 252.50229 446.91871 246.90152 451.63124 242.2793 458.03125 L 210.8125 437.76367 C 217.92362 427.09699 227.87967 418.65192 240.67969 412.42969 C 253.4797 406.20746 268.23613 403.09766 284.94727 403.09766 z M 458.33008 439.63086 C 451.21896 439.63086 444.9076 441.67478 439.39648 445.76367 C 434.06314 449.85257 429.79766 456.34157 426.59766 465.23047 C 423.57543 474.11937 422.06445 485.5864 422.06445 499.63086 C 422.06445 513.67532 423.57543 525.14235 426.59766 534.03125 C 429.79766 542.92015 434.06314 549.40915 439.39648 553.49805 C 444.9076 557.58694 451.21896 559.63086 458.33008 559.63086 C 465.61898 559.63086 471.93033 557.58694 477.26367 553.49805 C 482.77479 549.40915 487.04223 542.92015 490.06445 534.03125 C 493.26445 525.14235 494.86328 513.67532 494.86328 499.63086 C 494.86328 485.5864 493.26445 474.11937 490.06445 465.23047 C 487.04223 456.34157 482.77479 449.85257 477.26367 445.76367 C 471.93033 441.67478 465.61898 439.63086 458.33008 439.63086 z " />
      <path
         id="path1"
         style="fill:#ffffff;fill-opacity:0.79865772"
         d="M 738.00977 187.36719 L 457.45508 403.10156 C 457.74619 403.09877 458.03779 403.09766 458.33008 403.09766 C 473.79676 403.09766 487.48536 406.92 499.39648 414.56445 C 511.48539 422.03113 520.99635 432.96326 527.92969 447.36328 C 534.86303 461.76329 538.33008 479.18639 538.33008 499.63086 C 538.33008 520.07533 534.86303 537.49646 527.92969 551.89648 C 520.99635 566.2965 511.48539 577.31844 499.39648 584.96289 C 487.48536 592.42956 473.79676 596.16406 458.33008 596.16406 C 443.04117 596.16406 429.35257 592.42956 417.26367 584.96289 C 405.17477 577.31844 395.66381 566.2965 388.73047 551.89648 C 381.79713 537.49646 378.33008 520.07533 378.33008 499.63086 C 378.33008 484.70342 380.17875 471.3867 383.875 459.68164 L 347.4043 487.72656 C 346.1069 490.1318 344.57535 492.58899 342.8125 495.09766 C 338.36805 501.67544 331.7912 509.05268 323.08008 517.23047 L 280.04883 557.76367 L 360.41406 557.76367 L 360.41406 592.96289 L 219.3457 592.96289 L 219.3457 586.19727 L 100.46094 677.61523 L 938.15625 671.99219 L 738.00977 187.36719 z M 555.44727 406.29688 L 686.11328 406.29688 L 686.11328 434.29688 L 644.16211 482.08789 C 657.8694 484.25233 668.83099 488.94404 677.04688 496.16406 C 688.78022 506.47518 694.64648 519.71868 694.64648 535.89648 C 694.64648 546.38538 691.89198 556.25359 686.38086 565.49805 C 680.86975 574.56472 672.42467 581.94196 661.04688 587.63086 C 649.66908 593.31975 635.09225 596.16406 617.31445 596.16406 C 604.33666 596.16406 591.4465 594.47544 578.64648 591.09766 C 565.84647 587.5421 555.00218 582.56407 546.11328 576.16406 L 562.91406 543.09766 C 570.02518 548.25322 578.29066 552.34105 587.71289 555.36328 C 597.13512 558.38551 606.64804 559.89648 616.24805 559.89648 C 627.09251 559.89648 635.62542 557.76472 641.84766 553.49805 C 648.06988 549.23137 651.17969 543.36316 651.17969 535.89648 C 651.17969 528.78536 648.42518 523.18655 642.91406 519.09766 C 637.40295 515.00876 628.51473 512.96289 616.24805 512.96289 L 596.51367 512.96289 L 596.51367 484.42969 L 634.86719 440.96289 L 555.44727 440.96289 L 555.44727 406.29688 z M 706.16406 406.29688 L 786.69727 406.29688 L 786.69727 592.96289 L 743.49805 592.96289 L 743.49805 440.96289 L 706.16406 440.96289 L 706.16406 406.29688 z M 458.33008 439.63086 C 451.21896 439.63086 444.9076 441.67478 439.39648 445.76367 C 434.06314 449.85257 429.79766 456.34157 426.59766 465.23047 C 423.57543 474.11937 422.06445 485.5864 422.06445 499.63086 C 422.06445 513.67532 423.57543 525.14235 426.59766 534.03125 C 429.79766 542.92015 434.06314 549.40915 439.39648 553.49805 C 444.9076 557.58694 451.21896 559.63086 458.33008 559.63086 C 465.61898 559.63086 471.93033 557.58694 477.26367 553.49805 C 482.77479 549.40915 487.04223 542.92015 490.06445 534.03125 C 493.26445 525.14235 494.86328 513.67532 494.86328 499.63086 C 494.86328 485.5864 493.26445 474.11937 490.06445 465.23047 C 487.04223 456.34157 482.77479 449.85257 477.26367 445.76367 C 471.93033 441.67478 465.61898 439.63086 458.33008 439.63086 z " />
      <path
         id="path2"
         style="fill:#ffffff;fill-opacity:0.79865772"
         d="M 536.73828 224.47266 L 449.26562 403.56445 C 452.22213 403.25281 455.24312 403.09766 458.33008 403.09766 C 473.79676 403.09766 487.48536 406.92 499.39648 414.56445 C 511.48539 422.03113 520.99635 432.96326 527.92969 447.36328 C 534.86303 461.76329 538.33008 479.18639 538.33008 499.63086 C 538.33008 520.07533 534.86303 537.49646 527.92969 551.89648 C 520.99635 566.2965 511.48539 577.31844 499.39648 584.96289 C 487.48536 592.42956 473.79676 596.16406 458.33008 596.16406 C 443.04117 596.16406 429.35257 592.42956 417.26367 584.96289 C 405.17477 577.31844 395.66381 566.2965 388.73047 551.89648 C 386.67217 547.62155 384.91796 543.08108 383.4707 538.27344 L 360.41406 585.48047 L 360.41406 592.96289 L 356.75977 592.96289 L 275.87109 758.57422 L 1000 568.54688 L 786.69727 410.12305 L 786.69727 592.96289 L 743.49805 592.96289 L 743.49805 440.96289 L 706.16406 440.96289 L 706.16406 406.29688 L 781.54688 406.29688 L 536.73828 224.47266 z M 555.44727 406.29688 L 686.11328 406.29688 L 686.11328 434.29688 L 644.16211 482.08789 C 657.8694 484.25233 668.83099 488.94404 677.04688 496.16406 C 688.78022 506.47518 694.64648 519.71868 694.64648 535.89648 C 694.64648 546.38538 691.89198 556.25359 686.38086 565.49805 C 680.86975 574.56472 672.42467 581.94196 661.04688 587.63086 C 649.66908 593.31975 635.09225 596.16406 617.31445 596.16406 C 604.33666 596.16406 591.4465 594.47544 578.64648 591.09766 C 565.84647 587.5421 555.00218 582.56407 546.11328 576.16406 L 562.91406 543.09766 C 570.02518 548.25322 578.29066 552.34105 587.71289 555.36328 C 597.13512 558.38551 606.64804 559.89648 616.24805 559.89648 C 627.09251 559.89648 635.62542 557.76472 641.84766 553.49805 C 648.06988 549.23137 651.17969 543.36316 651.17969 535.89648 C 651.17969 528.78536 648.42518 523.18655 642.91406 519.09766 C 637.40295 515.00876 628.51473 512.96289 616.24805 512.96289 L 596.51367 512.96289 L 596.51367 484.42969 L 634.86719 440.96289 L 555.44727 440.96289 L 555.44727 406.29688 z M 458.33008 439.63086 C 451.21896 439.63086 444.9076 441.67478 439.39648 445.76367 C 434.06314 449.85257 429.79766 456.34157 426.59766 465.23047 C 423.57543 474.11937 422.06445 485.5864 422.06445 499.63086 C 422.06445 513.67532 423.57543 525.14235 426.59766 534.03125 C 429.79766 542.92015 434.06314 549.40915 439.39648 553.49805 C 444.9076 557.58694 451.21896 559.63086 458.33008 559.63086 C 465.61898 559.63086 471.93033 557.58694 477.26367 553.49805 C 482.77479 549.40915 487.04223 542.92015 490.06445 534.03125 C 493.26445 525.14235 494.86328 513.67532 494.86328 499.63086 C 494.86328 485.5864 493.26445 474.11937 490.06445 465.23047 C 487.04223 456.34157 482.77479 449.85257 477.26367 445.76367 C 471.93033 441.67478 465.61898 439.63086 458.33008 439.63086 z " />
    </g>
  </g>
</svg>
