<?xml version="1.0" encoding="UTF-8" standalone="no"?>
<!-- Created with Inkscape (http://www.inkscape.org/) -->

<svg
   xmlns:dc="http://purl.org/dc/elements/1.1/"
   xmlns:cc="http://creativecommons.org/ns#"
   xmlns:rdf="http://www.w3.org/1999/02/22-rdf-syntax-ns#"
   xmlns:svg="http://www.w3.org/2000/svg"
   xmlns="http://www.w3.org/2000/svg"
   xmlns:sodipodi="http://sodipodi.sourceforge.net/DTD/sodipodi-0.dtd"
   xmlns:inkscape="http://www.inkscape.org/namespaces/inkscape"
   version="1.1"
   id="svg815"
   width="256"
   height="256"
   viewBox="0 0 256 256"
   sodipodi:docname="Depressed Mati.svg"
   inkscape:version="0.92.3 (2405546, 2018-03-11)">
  <metadata
     id="metadata821">
    <rdf:RDF>
      <cc:Work
         rdf:about="">
        <dc:format>image/svg+xml</dc:format>
        <dc:type
           rdf:resource="http://purl.org/dc/dcmitype/StillImage" />
        <dc:title></dc:title>
      </cc:Work>
    </rdf:RDF>
  </metadata>
  <defs
     id="defs819" />
  <sodipodi:namedview
     pagecolor="#ffffff"
     bordercolor="#666666"
     borderopacity="1"
     objecttolerance="10"
     gridtolerance="10"
     guidetolerance="10"
     inkscape:pageopacity="0"
     inkscape:pageshadow="2"
     inkscape:window-width="1920"
     inkscape:window-height="1057"
     id="namedview817"
     showgrid="false"
     inkscape:zoom="1.7382813"
     inkscape:cx="212.39134"
     inkscape:cy="132.40414"
     inkscape:window-x="-8"
     inkscape:window-y="-8"
     inkscape:window-maximized="1"
     inkscape:current-layer="svg815" />
  <path
     style="fill:#000000"
     d="m 89.332299,222.85002 c -3.41263,-0.87252 -6.52513,-1.90675 -6.91667,-2.29829 -1.13148,-1.13148 -8.17425,-0.82476 -8.57364,0.37339 -0.23911,0.71734 -2.41535,0.39347 -6.4192,-0.95533 -3.33159,-1.12234 -9.02896,-2.34505 -12.66082,-2.71715 -9.98361,-1.02285 -11.18428,-2.79952 -14.73514,-21.80415 -0.99984,-5.35122 -1.39806,-38.45456 -0.77987,-64.82869 l 0.3919,-16.72006 3.02962,-3.74319 c 1.66629,-2.05876 4.34339,-4.52201 5.94911,-5.47389 4.09461,-2.42729 8.53314,-4.909142 11.13054,-6.223742 1.21607,-0.61549 2.34107,-2.01907 2.5,-3.11907 0.19629,-1.35865 1.18975,-2.10329 3.09801,-2.32212 1.54499,-0.17717 3.02975,-0.89722 3.29948,-1.600126 0.26973,-0.702903 -0.45411,-5.912891 -1.60854,-11.577751 -2.19879,-10.789663 -2.10697,-13 0.54005,-13 1.76344,0 4.45995,2.306348 4.45995,3.81463 0,0.82492 5.86835,4.18537 7.30891,4.18537 0.27866,0 0.45875,-3.108669 0.4002,-6.908154 -0.0663,-4.302625 0.37812,-7.492025 1.17831,-8.456195 0.70662,-0.851423 0.94339,-2.100397 0.52615,-2.775498 -1.27713,-2.066448 -3.09301,-16.940233 -2.14006,-17.529187 0.48647,-0.300661 0.58414,-2.730532 0.21704,-5.399713 -0.64772,-4.709481 -0.5687,-4.913273 2.67099,-6.888417 4.59902,-2.803886 5.27967,-2.558615 2.67527,0.96403 -1.63146,2.206659 -1.92711,3.302828 -1.11096,4.118978 0.81615,0.81615 1.6533,0.0513 3.14568,-2.874022 2.1067,-4.129465 9.91891,-11.319677 15.617211,-14.373784 5.02084,-2.691011 10.32316,-2.005126 13.96693,1.806705 1.67438,1.751609 3.72347,4.153834 4.55353,5.338278 1.33544,1.905586 1.81771,2.012964 4.1888,0.932627 2.23125,-1.016629 2.94226,-0.958243 4.24946,0.348953 1.42648,1.426481 1.36608,1.712593 -0.66131,3.13263 -1.22714,0.859523 -2.77614,1.562769 -3.44223,1.562769 -1.6973,0 -2.06456,4.834373 -0.68373,9 1.13468,3.42304 0.38008,6 -1.75695,6 -1.41441,0 -3.66529,-5.23041 -4.42175,-10.274898 -0.39165,-2.611703 -1.49159,-5.755774 -2.4443,-6.986826 -0.95272,-1.231052 -2.0344,-3.475776 -2.40375,-4.988276 -0.83883,-3.435028 -3.98545,-3.654888 -9.10212,-0.635979 -4.51054,2.661284 -6.268911,5.545963 -3.77764,6.197362 1.06998,0.279771 0.68127,0.501541 -1.003681,0.572616 -3.03579,0.128056 -4.12928,1.123624 -9.84838,8.966412 -2.44043,3.346632 -3.90162,6.452993 -3.90162,8.294484 0,4.758799 3.1671,15.981995 4.67307,16.559891 0.84298,0.323483 1.15012,1.276956 0.78346,2.432197 -0.39044,1.230146 0.30426,2.978444 1.97019,4.958301 2.69301,3.200458 3.28075,5.502227 1.55209,6.078448 -0.56166,0.187219 -1.12416,1.804081 -1.25,3.593026 -0.14644,2.081706 -0.85918,3.453515 -1.97987,3.81066 -0.96308,0.306917 -2.21642,1.427555 -2.78518,2.490307 -1.02613,1.91734 -3.96376,2.71649 -3.96376,1.078298 0,-1.377378 4.78579,-6.143241 6.20225,-6.176432 0.87208,-0.02043 0.77926,-0.333671 -0.28298,-0.95496 -0.8694,-0.508504 -2.42415,-2.96982 -3.45502,-5.469592 -2.35331,-5.706635 -3.69211,-5.836904 -3.03218,-0.295039 0.74092,6.221987 -0.30858,7.358159 -5.60597,6.068969 -2.37935,-0.579047 -5.18472,-1.413134 -6.23414,-1.853528 -1.74602,-0.732718 -1.85084,-0.468029 -1.23432,3.116922 1.99799,11.617936 1.9862,11.855561 -0.7498,15.107104 -1.43431,1.70458 -2.60784,3.78039 -2.60784,4.61289 0,0.8325 1.575,4.429792 3.5,7.993962 1.925,3.56417 3.5,7.23213 3.5,8.15101 0,0.91889 0.37742,1.43745 0.83872,1.15235 0.46129,-0.28509 1.87828,1.33131 3.14886,3.592 1.27058,2.2607 1.74826,3.76309 1.06152,3.33866 -0.97778,-0.6043 -1.00244,-0.31168 -0.11368,1.34898 1.16854,2.18345 1.94892,2.47307 5.81832,2.15932 3.31702,-0.26897 3.92346,2.59505 1.11349,5.25868 -1.30197,1.23417 -2.48384,3.30032 -2.62637,4.59145 -0.14253,1.29113 -0.90124,3.75684 -1.68604,5.47937 -2.03954,4.47655 -3.58531,10.76874 -2.47727,10.08393 0.8145,-0.50339 1.06008,0.11106 0.86372,2.16114 -0.0957,0.99874 5.11208,3.38553 7.42304,3.4021 3.10851,0.0223 4.37093,1.10679 6.09691,5.23762 1.71759,4.11077 1.89187,5.08333 0.78878,4.40158 -0.4125,-0.25494 -0.75,0.6185 -0.75,1.94098 0,3.05428 0.45243,3.01971 6.234981,-0.47645 2.62076,-1.58452 6.56502,-3.44317 8.76502,-4.13032 2.2,-0.68715 4.5625,-1.69582 5.25,-2.24149 0.84684,-0.67213 1.25,-0.6301 1.25,0.13033 0,0.61734 0.675,1.12244 1.5,1.12244 0.825,0 1.50228,-0.3375 1.50508,-0.75 0.003,-0.4125 1.594,-2.325 3.53602,-4.25 1.94202,-1.925 4.75223,-4.78767 6.24492,-6.36148 1.49269,-1.57382 3.72648,-3.25018 4.96398,-3.72525 1.2375,-0.47507 2.25,-1.57646 2.25,-2.44754 0,-0.87107 0.38986,-1.34282 0.86635,-1.04833 0.4765,0.29449 1.67124,-0.35395 2.65499,-1.44098 0.98375,-1.08703 1.2967,-1.97642 0.69545,-1.97642 -1.60648,0 -10.04979,-5.30564 -10.61014,-6.66724 -0.94253,-2.29027 2.24916,-2.15247 5.48781,0.23693 3.71638,2.74186 7.47769,3.06849 10.34667,0.89851 1.06762,-0.80751 1.64529,-1.4682 1.2837,-1.4682 -0.36158,0 0.71643,-1.4625 2.39559,-3.25 1.67916,-1.7875 4.36399,-4.64786 5.9663,-6.35636 3.39533,-3.62036 3.69449,-6.37668 0.96062,-8.85079 -2.13107,-1.9286 -10.04734,-14.80695 -10.04734,-16.34524 0,-1.169522 -2.87452,-3.656432 -3.50155,-3.029392 -0.24928,0.24928 -0.59688,1.39451 -0.77245,2.54497 -0.17557,1.150462 -0.80567,2.698142 -1.40022,3.439282 -0.59455,0.74114 -1.37821,2.31846 -1.74146,3.50515 -0.85777,2.80222 -3.14664,3.6372 -4.97057,1.81327 -1.33155,-1.33155 -2.01274,-3.16628 -5.65112,-15.220892 -1.1958,-3.961933 -3.34103,-5.614795 -4.14745,-3.195541 -0.19332,0.57995 -1.01832,1.186982 -1.83333,1.348959 -0.81502,0.161977 -2.15685,0.584392 -2.98185,0.938712 -2.67044,1.14688 -8.87715,0.0787 -11.08352,-1.907385 -6.96114,-6.266309 -11.909761,-19.517648 -15.460921,-41.400967 -1.4291,-8.806569 -1.01648,-10.390842 2.54444,-9.769562 1.48585,0.259238 1.62609,0.995956 3.41637,17.946339 0.33172,3.140803 1.04875,6.882598 1.593381,8.3151 0.54464,1.432501 0.99025,3.839761 0.99025,5.349466 0,1.509705 1.55679,5.904999 3.45954,9.767319 2.98376,6.056623 4.01245,7.239587 7.47987,8.601627 2.21118,0.868575 4.82553,1.368659 5.80969,1.111298 2.79619,-0.731221 6.2509,-6.562269 6.2509,-10.55061 0,-2.627142 0.48659,-3.698734 1.84025,-4.052726 3.76242,-0.983895 5.25639,-25.745756 1.7098,-28.339087 -1.3811,-1.009886 -1.39924,-1.541981 -0.1536,-4.504507 0.90712,-2.157383 1.22241,-5.201195 0.88121,-8.507077 -0.44827,-4.343359 -0.19896,-5.480055 1.59553,-7.274541 1.16974,-1.169748 2.12681,-2.576814 2.12681,-3.126814 0,-1.619811 1.73087,-1.143734 2.42579,0.667217 0.35188,0.91697 0.17502,2.13197 -0.39301,2.7 -0.56803,0.568031 -1.03278,3.192783 -1.03278,5.832783 0,4.133333 0.27778,4.8 2,4.8 1.1,0 2,-0.36033 2,-0.800734 0,-0.440404 1.97081,-1.758228 4.37958,-2.928498 3.9464,-1.91731 4.5893,-1.980864 6.5,-0.642562 1.17675,0.824227 2.12042,2.572567 2.12042,3.928498 0,1.922096 0.51941,2.443296 2.4349,2.443296 1.3392,0 3.62484,-0.452414 5.07921,-1.005364 1.60212,-0.609124 3.27757,-0.650969 4.25107,-0.106173 0.97195,0.543931 2.4623,0.509384 3.77219,-0.08744 1.52137,-0.693184 3.91313,-0.541506 8.04158,0.50997 l 5.87616,1.496603 3.30724,-2.903798 c 3.46849,-3.045378 5.6672,-3.635817 6.78773,-1.82277 0.36746,0.594565 1.71644,0.817913 2.99773,0.49633 1.28129,-0.321584 2.60951,-0.131829 2.95159,0.421677 0.41599,0.673074 1.25774,0.666124 2.54162,-0.02099 1.60781,-0.860478 2.53197,-0.350369 5.68931,3.140322 4.10485,4.538256 5.44285,8.784814 7.21108,22.886712 0.85023,6.780777 0.76701,8.658092 -0.49174,11.09225 -0.83336,1.611531 -1.92179,4.836394 -2.41875,7.166362 -2.18401,10.239776 -3.48631,13.761786 -10.19835,27.581018 -6.62352,13.637 -9.29573,20.15529 -8.26276,20.15529 1.0685,0 4.68414,-4.42562 6.56728,-8.03852 2.31683,-4.44493 2.30108,-4.43116 6.11291,-5.34227 1.90067,-0.45431 2.74998,-0.26537 2.74993,0.61174 -8e-5,1.2952 4.77447,1.64454 6.64832,0.48645 1.0899,-0.6736 4.35175,2.63676 4.35175,4.41648 0,0.81331 -0.35959,0.81257 -1.34201,-0.003 -0.7381,-0.61257 -1.66257,-0.7932 -2.05437,-0.4014 -0.3918,0.3918 -1.17216,0.0504 -1.73412,-0.75868 -0.77319,-1.11317 -1.14515,-1.16694 -1.52896,-0.22104 -0.27897,0.6875 -1.27971,1.25 -2.22387,1.25 -2.73798,0 -4.11667,2.10431 -4.11667,6.28333 0,2.67657 -0.38844,3.7455 -1.25,3.43977 -0.6875,-0.24396 -1.14281,-1.40646 -1.01179,-2.58333 0.13102,-1.17663 -0.20648,-2.13953 -0.75,-2.13953 -0.54352,0 -0.98821,0.37675 -0.98821,0.83723 0,0.46048 -1.6875,2.69786 -3.75,4.97195 -2.0625,2.27409 -5.92336,6.84734 -8.57969,10.16277 -2.65632,3.31543 -5.31385,6.02805 -5.90561,6.02805 -2.42632,0 -7.52185,5.03577 -8.11957,8.02435 -0.35388,1.76942 -2.13562,4.4659 -4.10013,6.20515 -1.91086,1.69174 -3.21992,3.48747 -2.90903,3.99051 0.31089,0.50303 -0.38002,1.1618 -1.53535,1.46393 -1.15534,0.30213 -2.10062,0.94684 -2.10062,1.43269 0,0.9823 -4.32776,1.22227 -5.25845,0.29158 -0.32548,-0.32548 0.25852,-2.57548 1.29779,-5 1.75711,-4.09917 1.76939,-4.41295 0.17512,-4.47589 -1.33086,-0.0525 -1.21297,-0.30961 0.52687,-1.14895 2.95046,-1.42336 7.66221,-9.08026 9.25094,-15.03337 1.26035,-4.72262 2.37687,-5.88896 3.35051,-3.5 0.34256,0.84052 1.18979,0.43105 2.58631,-1.25 3.43439,-4.13411 3.51509,-6.40249 0.40945,-11.50921 -1.5612,-2.56714 -3.53296,-5.83423 -4.3817,-7.26021 -1.56396,-2.62764 -3.95684,-4.141 -3.95684,-2.50247 0,0.49212 -1.0125,1.98343 -2.25,3.31402 -1.2375,1.33058 -2.15536,2.71185 -2.03969,3.06949 0.11567,0.35763 -0.67183,1.44857 -1.75,2.4243 -1.07817,0.97573 -1.96031,2.33117 -1.96031,3.01208 0,0.68091 -0.73941,1.52176 -1.64313,1.86855 -0.90372,0.34679 -1.35937,0.91428 -1.01255,1.2611 0.34681,0.34681 -1.16378,1.95015 -3.35688,3.56297 -2.19309,1.61282 -3.98744,3.51181 -3.98744,4.21997 0,0.70816 -4.1145,4.80651 -9.14334,9.10744 -13.10783,11.2105 -22.91098,21.45355 -23.5394,24.59569 -0.29676,1.48377 -1.32111,3.53666 -2.27633,4.56197 -1.11973,1.20189 -1.48798,2.55881 -1.03649,3.81926 4.38393,5.71851 13.38534,1.53505 -9.00443,5.89086 0,-0.1413 -2.33835,-1.42217 -5.196341,-2.84636 -5.41479,-2.6983 -8.29433,-3.22258 -9.24564,-1.68333 -0.88507,1.43207 -4.32472,0.094 -4.84186,-1.88355 -0.34761,-1.32925 -1.14684,-1.6629 -3.09246,-1.29097 -1.67534,0.32026 -2.62371,0.0593 -2.62371,-0.72201 -6.48446,-3.95047 3.48317,-1.43636 0.78028,-4.39972 -1.04793,-1.12181 -1.33191,0.2234 -2.3397,0.1405 l -1.77468,-3.1926 c 0,0 -0.40497,-0.71115 -0.0875,-2.40348 0.39766,-2.11949 -1.67032,-3.44854 -1.97437,-4.4193 l -3.59797,-11.62114 c 0.34969,-4.82159 1.58,-6.16981 3.50106,-7.9818 1.92106,-1.812 3.53644,-4.04548 3.58973,-4.96329 0.48404,-8.33639 -1.64659,-20.16876 -3.63173,-20.16876 -1.79369,0 -6.46479,-6.84958 -6.46638,-9.48213 -6.7e-4,-1.10983 -1.11424,-3.31207 -2.47461,-4.89386 l -2.47339,-2.87599 -3.77539,1.73897 c -2.07646,0.95643 -5.68789,3.75098 -8.02539,6.21012 -4.19521,4.41352 -5.3015,7.53499 -3.14323,8.86887 0.7677,0.47447 0.78302,0.8841 0.05,1.33712 -2.0928,1.29342 -3.23801,67.99106 -1.21208,70.59206 0.43047,0.55266 0.81205,1.67984 0.84795,2.50484 0.28596,6.57108 2.18423,14.73594 3.7229,16.01292 1.98472,1.64717 12.19755,3.12361 20.73444,2.99751 4.63551,-0.0685 7.75,0.29212 7.75,0.89729 0,0.55647 1.2375,1.0471 2.75,1.0903 1.5125,0.0432 4.54394,0.1356 6.73654,0.20537 2.1926,0.0698 4.55833,0.69862 5.25717,1.39747 0.83344,0.83343 3.07458,1.1182 6.51346,0.82761 2.883551,-0.24366 7.942821,-0.63848 11.242821,-0.87737 3.3,-0.23889 9.825,-0.95174 14.5,-1.58412 4.675,-0.63237 9.54502,-1.11099 10.82227,-1.06359 1.27725,0.0474 7.59478,-1.67015 14.03896,-3.81677 6.44417,-2.14661 14.62415,-4.4596 18.17772,-5.13997 6.31613,-1.2093 11.96105,-3.38593 11.96105,-4.61209 0,-0.33774 -0.7875,-1.22669 -1.75,-1.97543 -1.61742,-1.25823 -1.46591,-1.5959 2,-4.45724 2.0625,-1.70273 3.75,-3.45723 3.75,-3.89888 0,-0.44166 -1.575,-0.80301 -3.5,-0.80301 -1.925,0 -3.5,0.45314 -3.5,1.00699 0,0.55384 -0.675,0.74797 -1.5,0.43138 -0.87751,-0.33673 -1.5,-0.0145 -1.5,0.77638 0,0.74359 -0.9,1.58734 -2,1.875 -1.1,0.28766 -2,0.11514 -2,-0.38337 0,-0.49851 0.68357,-0.90638 1.51905,-0.90638 1.07792,0 1.35435,-0.65624 0.95188,-2.25979 -0.35639,-1.41999 0.10106,-3.00816 1.23095,-4.27358 3.00722,-3.36792 8.53633,-11.56175 8.09772,-12.00036 -0.58304,-0.58305 -7.17466,1.32812 -10.46078,3.03297 -2.09364,1.08619 -2.94034,1.14552 -3.49688,0.24502 -0.51878,-0.8394 -0.92768,-0.6844 -1.39293,0.52802 -0.36222,0.94393 -1.02771,1.4881 -1.47886,1.20927 -0.76508,-0.47284 -3.50675,0.40334 -8.6035,2.74951 -1.17335,0.54013 -4.43538,1.0466 -7.24897,1.12549 -2.81359,0.0789 -5.11608,0.46683 -5.11665,0.86207 -5.7e-4,0.39523 -0.67603,0.45959 -1.50103,0.14301 -2.4927,-0.95654 -1.68178,-2.62953 1.02387,-2.11232 1.38812,0.26536 2.76468,0.0928 3.05901,-0.38342 0.29434,-0.47624 1.55343,-0.86589 2.798,-0.86589 3.06006,0 11.54171,-2.90501 14.61912,-5.00713 1.375,-0.93924 3.06049,-1.51003 3.74554,-1.26844 0.68505,0.2416 3.38505,-0.25255 6,-1.09811 4.37925,-1.41605 10.52097,-1.69314 11.68684,-0.52728 0.75555,0.75555 -0.55466,4.90096 -1.54901,4.90096 -0.48585,0 -0.88337,1.09844 -0.88337,2.44098 0,1.34254 -0.45734,2.72364 -1.01631,3.0691 -1.76598,1.09143 0.0887,2.60046 2.35047,1.91244 2.48688,-0.7565 6.35177,-4.68949 19.0862,-19.42252 4.9916,-5.775 9.52653,-10.68109 10.07764,-10.90243 0.5511,-0.22133 2.352,-1.79912 4.002,-3.5062 1.65,-1.70708 4.9125,-4.6013 7.25,-6.43161 3.53815,-2.77043 4.25,-3.90665 4.25,-6.78363 0,-4.99728 -3.24692,-10.612 -7.92834,-13.71001 -4.56154,-3.01868 -5.0315,-4.18185 -2.00896,-4.97226 3.42344,-0.89525 8.35485,1.90237 12.32696,6.99317 3.46352,4.43896 3.70346,5.16266 3.08767,9.31297 -0.36721,2.475 -1.23759,5.86848 -1.93417,7.54107 -1.24423,2.98756 -10.35583,11.45893 -12.32495,11.45893 -0.55233,0 -1.26325,0.675 -1.57984,1.5 -0.31658,0.825 -1.35073,1.5 -2.29811,1.5 -1.53076,0 -1.50642,-0.16345 0.21861,-1.4682 1.63076,-1.23344 1.68089,-1.47328 0.31357,-1.5 -2.09985,-0.041 -4.05548,2.32073 -3.38789,4.09145 0.65801,1.74529 -7.06033,9.87675 -9.37496,9.87675 -1.10609,0 -2.62449,3.8601 -2.2618,5.75 0.13193,0.6875 -0.23282,1.25 -0.81057,1.25 -0.57774,0 -2.03142,1.12822 -3.23039,2.50716 -1.61069,1.85245 -2.38837,2.17887 -2.97808,1.25 -0.54329,-0.85577 -0.80301,-0.58183 -0.81344,0.85798 -0.008,1.16333 -0.91531,3.25931 -2.01531,4.65773 -1.1,1.39842 -2,3.03821 -2,3.64396 0,0.60576 -1.35658,2.5209 -3.01462,4.25588 -2.4915,2.60712 -2.91054,3.70932 -2.41481,6.35176 0.5182,2.76225 0.15752,3.54338 -2.65106,5.74142 -1.78798,1.3993 -3.92513,2.28545 -4.74923,1.96921 -0.93096,-0.35724 -1.24073,-0.1581 -0.81801,0.52586 1.02371,1.6564 -1.13818,2.54899 -6.81559,2.81399 -8.82791,0.41205 -14.96976,1.61098 -16.89167,3.29738 -1.02024,0.89522 -2.02802,1.52748 -2.2395,1.40503 -0.21148,-0.12246 -0.95174,-0.0464 -1.64501,0.16889 -1.44055,0.44747 -6.2159,1.45627 -9.46281,1.99903 -1.21127,0.20247 -3.81733,0.90114 -5.79124,1.55259 -1.97391,0.65145 -4.30241,0.91067 -5.17444,0.57604 -0.87203,-0.33463 -2.09779,-0.18326 -2.72391,0.33637 -0.62612,0.51964 -5.99379,1.16781 -11.92816,1.44038 -5.93436,0.27257 -11.36895,0.97628 -12.07685,1.56379 -0.70791,0.58751 -1.54466,0.81064 -1.859451,0.49585 -0.31479,-0.31479 -1.39839,-0.17665 -2.40799,0.30696 -1.16826,0.55962 -4.09154,0.30253 -8.04043,-0.70709 z m 15.204781,-42.01017 c -0.33992,-0.55 -0.17898,-1 0.35765,-1 0.53663,0 1.23403,0.5625 1.54979,1.25 0.31575,0.6875 0.32293,0.2375 0.0159,-1 -0.33043,-1.33201 -0.0986,-2.25 0.56825,-2.25 0.61952,0 0.831,-0.47797 0.46996,-1.06215 -0.36105,-0.58419 1.20634,-2.83419 3.48309,-5 2.27674,-2.16582 3.55809,-3.97338 2.84743,-4.0168 -1.00486,-0.0614 -1.01422,-0.19108 -0.0421,-0.58333 0.6875,-0.27741 1.25,-0.98663 1.25,-1.57604 0,-0.58941 -0.88939,-0.26677 -1.97642,0.71698 -1.08703,0.98375 -1.68821,2.25496 -1.33595,2.82493 0.39261,0.63526 -0.003,0.78918 -1.02359,0.39773 -0.91519,-0.3512 -1.66401,-0.20267 -1.66401,0.33006 0,0.53274 -1.125,0.96862 -2.5,0.96862 -1.375,0 -2.5,0.47656 -2.5,1.05902 0,0.58246 0.5625,0.77409 1.25,0.42584 0.6875,-0.34825 0.44878,0.0223 -0.53049,0.82352 -0.97927,0.80118 -3.52683,1.4808 -5.661241,1.51025 -4.22393,0.0583 -8.05827,1.92445 -8.05827,3.92192 0,0.6927 0.1125,1.28744 0.25,1.32164 0.1375,0.0342 2.27084,0.29254 4.74074,0.57407 2.46991,0.28154 4.682411,0.70355 4.916671,0.93781 0.89896,0.89897 4.17904,0.37483 3.59259,-0.57407 z m 81.62854,-47.25 c 1.08712,-2.04022 1.04378,-2.12204 -0.46482,-0.87756 -0.91505,0.75485 -1.66372,1.76735 -1.66372,2.25 0,1.52749 0.88863,0.95452 2.12854,-1.37244 z m -2.96076,-12.00179 c 5.15573,-8.21004 6.8214,-15.4038 6.93843,-29.965867 0.1978,-24.612779 0.0521,-27.158609 -1.48157,-25.885785 -0.75645,0.627796 -1.92506,3.270396 -2.59691,5.872445 -1.33541,5.171943 -8.32397,24.927375 -10.52277,29.746017 -2.86267,6.27351 -3.48933,8.69907 -2.87739,11.13722 0.46692,1.86039 1.12759,2.38354 2.54271,2.01348 1.48641,-0.3887 1.78391,-0.0967 1.33681,1.31195 -0.58005,1.82757 2.1613,10.02386 3.35149,10.02054 0.35278,-9.8e-4 1.84192,-1.91348 3.3092,-4.25 z m -21.77477,-9.33 c 1.11129,-2.89597 0.62661,-10.11254 -0.9767,-14.542482 -0.98476,-2.72088 -1.64658,-8.157606 -1.75,-14.375727 -0.15779,-9.487792 -0.0577,-10.015493 1.95334,-10.302469 2.1457,-0.306188 3.3355,1.88069 3.3667,6.188064 0.008,1.037078 1.2255,5.8576 2.70665,10.712272 2.94848,9.66407 4.05062,10.137312 6.20998,2.66645 2.64178,-9.139949 3.40951,-11.284259 4.23176,-11.819508 0.46908,-0.305355 1.25029,-2.555355 1.73603,-5 0.48573,-2.444645 1.22405,-5.344809 1.64072,-6.444809 0.72789,-1.921639 0.70074,-1.927174 -0.69305,-0.141259 -0.80505,1.031526 -2.3113,1.68587 -3.38454,1.470302 -1.51349,-0.303996 -1.86627,-1.083804 -1.62282,-3.587156 0.29533,-3.036752 0.10545,-3.2316 -3.75,-3.848111 -2.6,-0.415756 -4.06108,-1.175349 -4.06108,-2.111292 0,-0.804044 -1.0125,-2.283303 -2.25,-3.287242 l -2.25,-1.825343 2.42061,-2.581007 c 1.33134,-1.419553 2.15117,-2.850444 1.82186,-3.179758 -0.32932,-0.329313 -4.24241,-0.559749 -8.69576,-0.51208 -7.71034,0.08253 -8.15155,-0.03304 -9.23918,-2.42013 -0.83214,-1.826344 -2.18645,-2.673788 -4.98931,-3.121982 -3.11221,-0.497663 -3.62995,-0.87687 -2.71023,-1.985062 0.62529,-0.753434 1.7568,-1.36988 2.51445,-1.36988 0.75766,0 1.37756,-0.948784 1.37756,-2.108408 0,-1.787487 -0.41858,-2.011671 -2.75,-1.472858 -1.5125,0.349552 -4.19125,2.248722 -5.95277,4.220377 l -3.20276,3.584827 0.49334,9.138031 c 0.32595,6.037265 -0.0293,11.852634 -1.04706,17.138031 -0.84722,4.4 -1.54048,9.546296 -1.54058,11.436214 -1.9e-4,3.753271 3.68951,18.030825 5.02407,19.440985 0.45659,0.48247 1.35847,-1.08474 2.00416,-3.482682 3.36896,-12.511351 6.79536,-15.767639 8.96436,-8.519314 1.48969,4.978204 6.67054,15.430956 8.60912,17.369536 0.76897,0.76896 1.39812,1.95097 1.39812,2.62669 0,1.32533 1.96329,3.62857 3.09301,3.62857 0.38116,0 0.96616,-0.7118 1.3,-1.58179 z M 200.0874,89.556695 c 0.69603,-1.769264 2.08523,-5.084441 3.08713,-7.36706 2.33641,-5.323054 3.30511,-13.652106 2.4157,-20.770666 -0.81747,-6.542791 -2.55315,-6.514238 -2.55315,0.042 0,2.476697 -0.6338,6.612639 -1.40845,9.190983 -4.82919,16.073524 -6.43388,25.131864 -4.11054,23.203654 0.7171,-0.59514 1.87329,-2.529648 2.56931,-4.298913 z m -3.84644,-26.012482 c 0.96906,-1.524627 0.95939,-1.898375 -0.092,-3.557607 -1.16042,-1.831231 -5.11188,0.237023 -5.11188,2.675624 0,2.050436 4.02735,2.733015 5.20388,0.881983 z m -14.84225,-5.204362 c 0.31658,-0.825 0.13972,-1.5 -0.39301,-1.5 -0.53274,0 -0.96862,0.675 -0.96862,1.5 0,0.825 0.17686,1.5 0.39301,1.5 0.21616,0 0.65203,-0.675 0.96862,-1.5 z m 20.98032,-2.94872 c 0.68035,-1.772967 -1.62172,-6.589504 -4.31396,-9.025952 -1.91389,-1.732045 -2.14937,-1.727759 -6.41029,0.11668 l -4.42342,1.914777 1.36619,3.249201 c 1.23337,2.933327 1.70979,3.211337 4.9006,2.859713 1.98701,-0.218966 4.30157,0.19284 5.28667,0.940603 2.2677,1.721344 2.91636,1.711414 3.59421,-0.05502 z m -27.10699,-5.120536 c 2.29336,-3.778468 2.53989,-4.818403 1.52682,-6.440587 -1.30163,-2.084248 -7.96013,-3.567718 -12.29454,-2.739144 -1.38324,0.264423 -2.70942,0.166146 -2.94708,-0.218392 -0.23766,-0.384537 -1.76123,-0.504085 -3.38571,-0.265662 -3.09364,0.45405 -4.94919,3.818305 -3.11669,5.6508 0.52374,0.523739 4.784,0.928068 9.46725,0.898509 8.24444,-0.05204 8.51499,0.01964 8.51499,2.255977 0,1.270347 -0.45,2.587836 -1,2.927755 -0.55,0.339919 -1,1.041476 -1,1.559017 0,2.057069 1.6338,0.657324 4.23496,-3.628273 z m 29.76504,-7.371727 c 0,-1.17986 -1.95035,-2.441996 -2.66667,-1.725684 -0.71631,0.716313 0.54583,2.666667 1.72569,2.666667 0.51754,0 0.94098,-0.423442 0.94098,-0.940983 z m -9,-1.684017 c 0,-1.687394 -6.19521,-2.669812 -7.16841,-1.136745 -1.30636,2.057894 -1.0208,2.261745 3.16841,2.261745 2.2963,0 4,-0.479167 4,-1.125 z M 120.93943,185.18865 c -1.23594,-1.51878 -1.19849,-1.6469 0.31562,-1.0797 0.94489,0.35395 2.01364,0.16516 2.375,-0.41954 0.43674,-0.70665 0.94402,-0.60818 1.51298,0.29368 0.70616,1.11933 1.39846,1.05051 3.95604,-0.39324 3.80219,-2.14634 6.93801,-2.25933 6.93801,-0.25 0,0.825 -0.3375,1.53463 -0.75,1.57697 -5.37813,0.5519 -7.21271,0.80364 -9.84765,1.35129 -2.28398,0.47469 -3.46601,0.19115 -4.5,-1.07946 z m 25.66525,-19.23942 c -0.57539,-0.931 2.50607,-3.25239 5.9324,-4.46912 1.43148,-0.50834 1.09157,0.1525 -1.19577,2.32476 -3.46452,3.29021 -3.90516,3.4897 -4.73663,2.14436 z m -44.5676,-10.10938 c 0.5887,-1.1 1.57428,-2 2.19017,-2 0.61589,0 0.30532,0.9 -0.69017,2 -0.99549,1.1 -1.98106,2 -2.19017,2 -0.20911,0 0.10147,-0.9 0.69017,-2 z m -7.825081,-39.00436 c -6.06636,-5.05596 -8.96014,-13.03986 -4.99979,-13.79433 1.97234,-0.37574 5.42208,6.02337 4.26045,7.90293 -0.44793,0.72476 -0.32342,0.94448 0.3125,0.55146 0.59591,-0.3683 1.51318,0.65499 2.10249,2.34549 0.57497,1.64934 1.7438,2.99881 2.59741,2.99881 0.85361,0 1.552021,0.45 1.552021,1 0,1.64516 -3.336261,1.06993 -5.825081,-1.00436 z M 26.074849,41.38536 c -0.79205,-0.954368 -2.92299,-1.545509 -5.57123,-1.545509 -5.11182,0 -15.4665403,-3.735606 -15.4665403,-5.579766 0,-2.325636 1.96081,-2.600617 6.4148403,-0.899607 2.4021,0.917371 5.19951,1.507708 6.21647,1.31186 1.56512,-0.301414 1.21206,-1.047104 -2.29953,-4.856721 C 11.232449,25.328136 6.0644087,16.057253 2.1178987,6.0448802 c -2.56959003,-6.5191043 -2.59081003,-6.2050294 0.41918,-6.2050294 1.375,0 2.5,0.5269381 2.5,1.1709737 0,0.6440355 1.30395,3.9065357 2.89766,7.2499997 1.59372,3.3434648 3.6228603,7.6540268 4.5092103,9.5790268 2.336,5.073376 9.99209,14.965743 13.22279,17.085057 3.40782,2.235495 4.89459,1.264474 5.84837,-3.819617 0.37798,-2.014816 1.26777,-4.49213 1.97731,-5.505141 1.22484,-1.748699 1.32111,-1.725996 1.90371,0.448931 1.15647,4.31719 0.6399,8.522385 -1.35905,11.063641 -1.1,1.398423 -2,3.034109 -2,3.634858 0,0.600749 -0.41319,1.092271 -0.91821,1.092271 -0.50502,0 -1.55792,0.245479 -2.33979,0.545509 -0.78186,0.30003 -1.99877,-0.14997 -2.70423,-1 z"
     id="path839"
     inkscape:connector-curvature="0"
     sodipodi:nodetypes="ccsccsscccsssssssssssssssssssscccscsccssssssssssscssccssssssssscccsccsccscssscscsscscsscsscscssccscsssscccscssscssscscscccscssssscsssccscscscsccccssccccscsccssccssscsccccssscccscscsccsssscsscsccccscccccscccssscccscscsscsscccscsscscsssscsssscccscscccscccsccccssssscscssscccscscccscscccssscsccsscccsscscccccsccsccccssccssssccsscccscsscsccsccccccccccssccccscssscccscscssssccccccscsscccsssscccsccssscccsccscccscscsssssssscssscsscccccscccccscssssscscccsscssssssssssssssssssss" />
</svg>
